<svg xmlns="http://www.w3.org/2000/svg" xmlns:xlink="http://www.w3.org/1999/xlink" width="500" zoomAndPan="magnify" viewBox="0 0 375 374.999991" height="500" preserveAspectRatio="xMidYMid meet" version="1.0"><defs><g/></defs><path fill="#fe8ec1" d="M 169.097656 158.101562 C 178.792969 149.652344 189.972656 142.742188 202.246094 138.90625 C 209.90625 136.511719 217.882812 135.339844 225.734375 133.671875 C 233.585938 132.003906 241.453125 129.78125 248.265625 125.535156 C 255.078125 121.289062 260.785156 114.773438 262.566406 106.945312 C 264.34375 99.117188 261.515625 90.050781 254.726562 85.765625 C 265.117188 89.964844 272.761719 99.980469 274.714844 111.011719 C 276.671875 122.046875 273.125 133.785156 265.886719 142.339844 C 258.652344 150.894531 247.957031 156.273438 236.839844 157.675781 C 226.546875 158.972656 216.164062 157.027344 205.867188 155.757812 C 195.570312 154.492188 184.773438 153.960938 169.097656 158.101562 Z M 169.097656 158.101562 " fill-opacity="1" fill-rule="nonzero"/><path fill="#fe8ec1" d="M 149.191406 158.902344 C 140.109375 161.269531 130.636719 162.535156 121.316406 161.441406 C 111.992188 160.347656 102.804688 156.769531 95.929688 150.382812 C 109.578125 151.980469 123.605469 150.207031 136.429688 145.265625 C 150.273438 139.929688 162.484375 131.074219 175.984375 124.917969 C 186.679688 120.039062 198.117188 116.882812 208.648438 111.652344 C 219.175781 106.421875 229.097656 98.597656 233.367188 87.644531 C 235.738281 95.699219 232.53125 104.574219 227.15625 111.023438 C 221.777344 117.476562 214.476562 121.976562 207.3125 126.355469 C 188.433594 137.902344 170.8125 153.265625 149.191406 158.898438 Z M 149.191406 158.902344 " fill-opacity="1" fill-rule="nonzero"/><path fill="#fe8ec1" d="M 95.546875 121.734375 C 99.628906 108.332031 111.195312 98.300781 123.90625 92.402344 C 136.617188 86.507812 150.605469 84.089844 164.292969 81.09375 C 177.980469 78.097656 191.867188 74.316406 203.285156 66.195312 C 200.589844 79.222656 190.46875 89.796875 178.664062 95.933594 C 166.855469 102.066406 153.453125 104.339844 140.230469 105.804688 C 127.007812 107.269531 113.621094 108.023438 95.546875 121.734375 Z M 95.546875 121.734375 " fill-opacity="1" fill-rule="nonzero"/><path fill="#f43a58" d="M 147.1875 51.6875 C 153.132812 59.796875 165.914062 61.214844 174.1875 55.496094 C 182.460938 49.78125 185.8125 38.351562 183.117188 28.660156 C 189.3125 29.453125 194.925781 33.808594 197.230469 39.617188 C 199.539062 45.421875 198.445312 52.441406 194.484375 57.269531 C 189.796875 62.980469 181.867188 65.199219 174.496094 64.75 C 167.121094 64.296875 160.105469 61.550781 147.1875 51.683594 Z M 147.1875 51.6875 " fill-opacity="1" fill-rule="nonzero"/><path fill="#fe8ec1" d="M 223.40625 164.921875 C 222.289062 192.789062 221.171875 220.65625 220.054688 248.523438 C 208.355469 247.902344 196.574219 248.851562 185.125 251.328125 C 189.410156 223.519531 193.695312 195.707031 197.980469 167.898438 C 198.332031 165.625 198.742188 163.222656 200.25 161.488281 C 202.75 158.617188 207.21875 158.691406 210.921875 159.570312 C 214.625 160.449219 218.425781 161.902344 223.40625 164.921875 Z M 223.40625 164.921875 " fill-opacity="1" fill-rule="nonzero"/><path fill="#fe8ec1" d="M 266.441406 150.300781 C 255.425781 173.191406 246.433594 197.054688 239.609375 221.527344 C 238.054688 227.097656 236.574219 232.792969 233.5625 237.734375 C 230.554688 242.675781 225.703125 246.851562 219.957031 247.53125 C 220.285156 230.382812 228.863281 214.613281 237.222656 199.636719 C 246.101562 183.714844 254.984375 167.796875 266.441406 150.300781 Z M 266.441406 150.300781 " fill-opacity="1" fill-rule="nonzero"/><path fill="#fe8ec1" d="M 157.515625 165.050781 C 164.140625 167.105469 170.765625 169.164062 177.386719 171.222656 C 176.109375 197.648438 177.019531 224.183594 180.113281 250.460938 C 173.675781 251.074219 165.859375 251.058594 162.382812 245.605469 C 160.757812 243.0625 160.546875 239.902344 160.375 236.886719 C 158.988281 212.054688 157.597656 187.222656 157.515625 165.050781 Z M 157.515625 165.050781 " fill-opacity="1" fill-rule="nonzero"/><path fill="#fe8ec1" d="M 116.40625 171.757812 C 120.4375 174.375 124.464844 176.988281 128.316406 179.535156 C 133.269531 202.683594 136.53125 226.195312 138.070312 249.820312 C 145.464844 249.6875 152.855469 249.550781 160.246094 249.417969 C 156.167969 224.007812 152.085938 198.59375 148.003906 173.179688 C 147.441406 169.695312 146.683594 165.855469 143.871094 163.71875 C 140.847656 161.421875 136.617188 161.949219 132.875 162.585938 C 127.066406 163.574219 120.796875 164.804688 116.40625 171.757812 Z M 116.40625 171.757812 " fill-opacity="1" fill-rule="nonzero"/><path fill="#fe8ec1" d="M 89.480469 170.292969 C 104.429688 194.878906 118.953125 219.722656 133.050781 244.808594 C 128.742188 246.585938 123.539062 248.292969 119.695312 245.65625 C 117.34375 244.039062 116.207031 241.207031 115.199219 238.535156 C 107.253906 217.507812 99.308594 196.480469 89.480469 170.292969 Z M 89.480469 170.292969 " fill-opacity="1" fill-rule="nonzero"/><path fill="#b80029" d="M 98.59375 164.367188 C 88.914062 157.230469 86.558594 141.960938 93.636719 132.238281 C 98.59375 125.429688 106.820312 121.867188 114.855469 119.347656 C 143.613281 110.320312 175.640625 110.320312 201.457031 94.761719 C 207.179688 91.3125 212.574219 87.042969 216.1875 81.417969 C 219.800781 75.792969 221.445312 68.648438 219.429688 62.273438 C 217.410156 55.902344 211.261719 50.726562 204.582031 50.945312 C 210.859375 53.816406 214.207031 61.34375 213.371094 68.199219 C 212.535156 75.054688 208.136719 81.105469 202.605469 85.238281 C 197.070312 89.371094 190.472656 91.8125 183.851562 93.785156 C 194.605469 88.53125 202.359375 77.582031 203.738281 65.699219 C 195.695312 78.839844 183.003906 89.070312 168.457031 94.144531 C 156.707031 98.242188 144.113281 99.003906 131.757812 100.480469 C 119.40625 101.953125 106.761719 104.320312 96.332031 111.101562 C 85.898438 117.882812 78.117188 130.039062 79.824219 142.363281 C 81.210938 152.359375 88.609375 160.816406 98.59375 164.367188 Z M 98.59375 164.367188 " fill-opacity="1" fill-rule="nonzero"/><path fill="#b80029" d="M 95.84375 149.847656 C 103.933594 158.265625 116.628906 161.085938 128.179688 159.378906 C 139.726562 157.671875 150.3125 151.980469 159.976562 145.433594 C 169.644531 138.882812 178.667969 131.382812 188.675781 125.375 C 201.800781 117.496094 216.585938 112.203125 228.351562 102.40625 C 208.550781 112.925781 186.738281 119.636719 164.453125 122.0625 C 175.019531 119.375 185.65625 116.664062 195.535156 112.050781 C 205.414062 107.441406 214.597656 100.761719 220.488281 91.585938 C 226.378906 82.414062 228.597656 70.523438 224.675781 60.351562 C 236.257812 67.867188 244.402344 81.855469 241.832031 95.417969 C 240.089844 104.621094 233.816406 112.398438 226.535156 118.285156 C 219.253906 124.175781 210.882812 128.53125 203.042969 133.65625 C 191.5625 141.167969 181.234375 150.328125 169.769531 157.871094 C 158.3125 165.414062 145.257812 171.417969 131.535156 171.46875 C 117.816406 171.523438 103.449219 164.488281 95.84375 149.84375 Z M 95.84375 149.847656 " fill-opacity="1" fill-rule="nonzero"/><path fill="#b80029" d="M 143 164.773438 C 148.59375 156.386719 158.398438 151.539062 168.335938 149.8125 C 178.269531 148.082031 188.457031 149.113281 198.46875 150.300781 C 208.480469 151.488281 218.59375 152.832031 228.613281 151.710938 C 239.921875 150.445312 251.089844 145.820312 258.898438 137.542969 C 266.703125 129.265625 270.714844 117.125 267.914062 106.097656 C 265.199219 95.417969 256.742188 87.097656 247.527344 81.058594 C 266.765625 86.371094 281.109375 105.800781 280.515625 125.75 C 279.921875 145.699219 264.445312 164.242188 244.925781 168.398438 C 223.09375 173.046875 200.785156 161.171875 178.554688 163.175781 C 167.953125 164.132812 157.902344 168.207031 147.46875 170.3125 C 137.035156 172.417969 125.269531 172.238281 116.890625 165.675781 C 130.515625 166.613281 144.402344 163.382812 143 164.773438 Z M 143 164.773438 " fill-opacity="1" fill-rule="nonzero"/><path fill="#b80029" d="M 108.941406 113.734375 C 106.394531 102.484375 109.199219 90.144531 116.359375 81.101562 C 123.515625 72.058594 134.882812 66.496094 146.414062 66.390625 C 157.964844 66.285156 169.363281 71.320312 180.785156 69.605469 C 188.964844 68.375 196.71875 63.304688 200.191406 55.796875 C 203.660156 48.285156 202.175781 38.492188 195.949219 33.046875 C 189.722656 27.597656 179.042969 27.792969 173.664062 34.078125 C 178.152344 30.558594 185.113281 30.996094 189.464844 34.6875 C 193.8125 38.382812 195.425781 44.796875 193.835938 50.277344 C 192.242188 55.753906 187.734375 60.171875 182.386719 62.167969 C 177.042969 64.167969 170.984375 63.875 165.632812 61.902344 C 160.058594 59.847656 155 55.777344 152.890625 50.222656 C 150.785156 44.671875 152.230469 37.644531 157.0625 34.191406 C 161.894531 30.738281 169.824219 32.238281 171.972656 37.386719 C 175.121094 32.96875 181.613281 31.515625 186.546875 33.773438 C 191.484375 36.03125 194.585938 41.535156 194.449219 46.960938 C 194.3125 52.382812 191.164062 57.527344 186.65625 60.554688 C 192.460938 58.011719 196.605469 52.039062 196.945312 45.707031 C 197.285156 39.378906 193.808594 32.996094 188.308594 29.84375 C 182.8125 26.695312 177.808594 30.320312 172.523438 33.816406 C 173.195312 27.855469 165.421875 24.554688 161.648438 24.023438 C 153.160156 22.828125 144.183594 27.988281 140.945312 35.925781 C 137.707031 43.863281 140.507812 53.832031 147.410156 58.914062 C 131.703125 58.214844 115.835938 65.246094 105.804688 77.351562 C 95.777344 89.460938 91.824219 106.363281 95.4375 121.664062 C 99.425781 115.796875 105.785156 111.59375 108.941406 113.730469 Z M 108.941406 113.734375 " fill-opacity="1" fill-rule="nonzero"/><path fill="#b80029" d="M 169.679688 31.800781 C 173.589844 28.570312 178.53125 26.523438 183.605469 26.382812 C 188.675781 26.242188 193.832031 28.078125 197.457031 31.632812 C 201.230469 35.328125 203.15625 40.675781 203.238281 45.960938 C 203.308594 50.589844 202.003906 55.273438 199.320312 59.050781 C 196.636719 62.828125 192.550781 65.640625 188.007812 66.539062 C 191.222656 63.46875 194.066406 59.9375 195.917969 55.894531 C 197.769531 51.851562 198.585938 47.261719 197.746094 42.894531 C 196.902344 38.527344 194.300781 34.433594 190.441406 32.21875 C 186.167969 29.773438 180.542969 29.898438 176.382812 32.539062 C 175.613281 33.03125 174.886719 33.597656 174.058594 33.984375 C 173.230469 34.375 172.257812 34.5625 171.402344 34.246094 C 170.542969 33.929688 169.878906 33 169.683594 31.800781 Z M 169.679688 31.800781 " fill-opacity="1" fill-rule="nonzero"/><path fill="#b80029" d="M 169.867188 30.65625 C 170.847656 24.066406 173.324219 17.667969 177.269531 12.300781 C 181.210938 6.929688 186.644531 2.617188 192.875 0.25 C 194.390625 -0.328125 196.050781 -0.789062 197.617188 -0.367188 C 199.183594 0.0507812 200.527344 1.671875 200.097656 3.238281 C 199.710938 4.636719 198.207031 5.355469 196.886719 5.957031 C 187.808594 10.113281 179.867188 17.460938 176.65625 26.914062 C 176.21875 28.195312 175.867188 29.519531 175.191406 30.695312 C 174.519531 31.867188 173.453125 32.902344 172.125 33.164062 C 170.796875 33.429688 169.554688 32.765625 169.867188 30.65625 Z M 169.867188 30.65625 " fill-opacity="1" fill-rule="nonzero"/><path fill="#b80029" d="M 278.25 116.582031 C 275.40625 123.785156 272.5625 130.984375 269.722656 138.1875 C 271.398438 142.066406 270.277344 146.230469 269.078125 149.765625 C 260.804688 174.226562 252.53125 198.6875 244.257812 223.148438 C 242.65625 227.886719 241.007812 232.71875 237.996094 236.71875 C 235.273438 240.34375 231.195312 243.21875 226.734375 243.621094 C 225.128906 245.140625 223.429688 246.5625 221.652344 247.878906 C 215.746094 252.246094 208.757812 254.769531 201.546875 255.941406 C 186.023438 258.457031 170.230469 258.714844 154.554688 257.734375 C 146.5 257.230469 137.710938 256.640625 130.949219 251.703125 C 127.039062 248.84375 123.472656 245.539062 121.214844 241.171875 C 121.152344 241.046875 121.09375 240.921875 121.03125 240.796875 L 118.007812 239.390625 L 85.957031 158.480469 L 111.835938 251.238281 C 111.691406 251.21875 111.550781 251.195312 111.40625 251.175781 C 151.601562 266.566406 197.476562 266.613281 237.691406 251.277344 C 247.992188 226.269531 258.382812 201.550781 268.773438 176.832031 C 272.808594 167.238281 276.863281 157.574219 279.089844 147.40625 C 281.316406 137.238281 281.632812 126.425781 278.25 116.582031 Z M 278.25 116.582031 " fill-opacity="1" fill-rule="nonzero"/><path fill="#b80029" d="M 113.015625 238.613281 C 155.011719 246.804688 198.613281 246.664062 240.554688 238.207031 C 239.34375 243.832031 235.019531 248.398438 229.996094 251.199219 C 224.972656 254 219.261719 255.28125 213.621094 256.402344 C 198.484375 259.40625 183.125 261.507812 167.695312 261.640625 C 157.804688 261.726562 147.796875 260.976562 138.382812 257.9375 C 128.972656 254.894531 120.136719 249.402344 113.015625 238.613281 Z M 113.015625 238.613281 " fill-opacity="1" fill-rule="nonzero"/><path fill="#b80029" d="M 103.691406 157.566406 C 113.0625 185.902344 121.375 214.59375 128.601562 243.554688 C 132.710938 244.488281 136.820312 245.425781 140.925781 246.363281 C 138.863281 248.714844 139.082031 252.707031 141.382812 254.824219 C 134.195312 225.234375 127.007812 195.644531 119.820312 166.054688 C 126.589844 167.835938 134.074219 166.730469 140.042969 163.070312 C 146.339844 193.894531 152.636719 224.714844 158.929688 255.539062 C 158.148438 255.148438 157.363281 254.753906 156.578125 254.363281 C 159.585938 254.097656 162.65625 254.640625 165.386719 255.921875 C 163.160156 223.480469 161.921875 190.96875 161.679688 158.453125 C 172.191406 159.953125 182.898438 160.109375 193.449219 158.90625 C 189.796875 157.59375 186.140625 156.28125 182.488281 154.964844 C 182.683594 188.882812 181.996094 222.804688 180.425781 256.683594 C 180.046875 256.183594 179.671875 255.683594 179.292969 255.1875 C 184.003906 255.589844 188.710938 255.992188 193.417969 256.394531 C 192.007812 256.441406 190.597656 256.488281 189.191406 256.535156 C 194.464844 224.394531 199.746094 192.257812 204.304688 158.714844 C 215.175781 160.101562 226.046875 161.488281 236.914062 162.875 C 235.90625 161.695312 234.894531 160.519531 233.882812 159.339844 C 225.175781 192.121094 215.328125 224.601562 204.363281 256.699219 C 203.832031 255.878906 203.304688 255.058594 202.777344 254.238281 C 208.246094 254.417969 213.71875 254.59375 219.1875 254.773438 C 232.761719 218.695312 249.203125 183.695312 268.3125 150.21875 C 257.636719 153.589844 246.960938 156.960938 236.496094 159.085938 C 216.085938 159.835938 201.898438 148.855469 184.101562 151.589844 C 166.304688 154.324219 149.222656 160.441406 131.6875 164.527344 C 127.742188 165.449219 123.6875 166.269531 119.664062 165.796875 C 115.636719 165.324219 111.589844 163.34375 103.691406 157.566406 Z M 103.691406 157.566406 " fill-opacity="1" fill-rule="nonzero"/><g fill="#b80029" fill-opacity="1"><g transform="translate(14.060794, 367.389615)"><g><path d="M 29.875 0 L 2.03125 0 C 3.0625 -4.59375 3.835938 -9.445312 4.359375 -14.5625 C 4.878906 -19.675781 5.140625 -24.847656 5.140625 -30.078125 C 5.140625 -35.304688 4.878906 -40.476562 4.359375 -45.59375 C 3.835938 -50.707031 3.0625 -55.5625 2.03125 -60.15625 L 30.34375 -60.15625 C 34.945312 -60.15625 38.945312 -59.3125 42.34375 -57.625 C 45.75 -55.9375 48.585938 -53.648438 50.859375 -50.765625 C 53.140625 -47.878906 54.84375 -44.65625 55.96875 -41.09375 C 57.09375 -37.539062 57.632812 -33.859375 57.59375 -30.046875 C 57.550781 -26.234375 56.941406 -22.535156 55.765625 -18.953125 C 54.597656 -15.378906 52.863281 -12.171875 50.5625 -9.328125 C 48.257812 -6.484375 45.382812 -4.21875 41.9375 -2.53125 C 38.488281 -0.84375 34.46875 0 29.875 0 Z M 18.109375 -12.703125 C 18.109375 -9.097656 18.738281 -6.453125 20 -4.765625 C 21.269531 -3.078125 22.847656 -2.234375 24.734375 -2.234375 C 26.453125 -2.234375 28.28125 -2.863281 30.21875 -4.125 C 32.15625 -5.382812 34.023438 -7.207031 35.828125 -9.59375 C 37.628906 -11.988281 39.203125 -14.894531 40.546875 -18.3125 C 41.898438 -21.738281 42.828125 -25.59375 43.328125 -29.875 C 44.003906 -35.644531 44.015625 -40.5 43.359375 -44.4375 C 42.710938 -48.382812 41.632812 -51.453125 40.125 -53.640625 C 38.613281 -55.828125 36.863281 -57.144531 34.875 -57.59375 C 34.195312 -57.769531 33.457031 -57.859375 32.65625 -57.859375 C 30.488281 -57.859375 28.515625 -57.171875 26.734375 -55.796875 C 24.953125 -54.421875 23.421875 -52.515625 22.140625 -50.078125 C 20.859375 -47.648438 19.863281 -44.859375 19.15625 -41.703125 C 18.457031 -38.546875 18.109375 -35.191406 18.109375 -31.640625 Z M 18.109375 -12.703125 "/></g></g></g><g fill="#b80029" fill-opacity="1"><g transform="translate(78.876375, 367.389615)"><g><path d="M 3.921875 -4.390625 C 3.203125 -6.378906 2.910156 -8.382812 3.046875 -10.40625 C 3.179688 -12.4375 3.460938 -14.554688 3.890625 -16.765625 C 4.316406 -18.972656 4.628906 -21.347656 4.828125 -23.890625 C 5.035156 -26.441406 4.84375 -29.203125 4.25 -32.171875 C 3.664062 -35.148438 2.429688 -38.421875 0.546875 -41.984375 L 18.3125 -41.984375 C 18.90625 -40.046875 19.117188 -37.890625 18.953125 -35.515625 C 18.796875 -33.148438 18.4375 -30.679688 17.875 -28.109375 C 17.3125 -25.546875 16.722656 -23.003906 16.109375 -20.484375 C 15.503906 -17.960938 15.03125 -15.550781 14.6875 -13.25 C 14.351562 -10.945312 14.320312 -8.894531 14.59375 -7.09375 C 14.820312 -5.65625 15.34375 -4.519531 16.15625 -3.6875 C 16.96875 -2.851562 17.914062 -2.4375 19 -2.4375 C 20.300781 -2.4375 21.660156 -3.144531 23.078125 -4.5625 C 24.503906 -5.976562 25.722656 -8.226562 26.734375 -11.3125 C 27.742188 -14.40625 28.335938 -18.472656 28.515625 -23.515625 C 28.703125 -28.566406 28.1875 -34.722656 26.96875 -41.984375 L 44.75 -41.984375 C 43.757812 -37.835938 43.003906 -34.082031 42.484375 -30.71875 C 41.960938 -27.363281 41.703125 -24.117188 41.703125 -20.984375 C 41.703125 -17.859375 41.960938 -14.613281 42.484375 -11.25 C 43.003906 -7.894531 43.757812 -4.144531 44.75 0 L 26.96875 0 C 27.507812 -2.164062 27.972656 -4.21875 28.359375 -6.15625 C 28.742188 -8.09375 29.070312 -9.960938 29.34375 -11.765625 C 28.613281 -8.921875 27.609375 -6.628906 26.328125 -4.890625 C 25.046875 -3.160156 23.625 -1.84375 22.0625 -0.9375 C 20.507812 -0.0390625 18.898438 0.5625 17.234375 0.875 C 15.566406 1.195312 13.988281 1.359375 12.5 1.359375 C 10.613281 1.359375 8.867188 0.851562 7.265625 -0.15625 C 5.660156 -1.175781 4.546875 -2.585938 3.921875 -4.390625 Z M 3.921875 -4.390625 "/></g></g></g><g fill="#b80029" fill-opacity="1"><g transform="translate(130.64518, 367.389615)"><g><path d="M 22.3125 1.359375 C 19.019531 1.359375 16.078125 0.785156 13.484375 -0.359375 C 10.890625 -1.515625 8.679688 -3.082031 6.859375 -5.0625 C 5.035156 -7.050781 3.660156 -9.304688 2.734375 -11.828125 C 1.816406 -14.347656 1.359375 -17.007812 1.359375 -19.8125 C 1.398438 -24.039062 2.082031 -27.65625 3.40625 -30.65625 C 4.738281 -33.65625 6.5 -36.085938 8.6875 -37.953125 C 10.875 -39.828125 13.273438 -41.191406 15.890625 -42.046875 C 18.503906 -42.898438 21.09375 -43.328125 23.65625 -43.328125 C 26.09375 -43.328125 28.367188 -42.988281 30.484375 -42.3125 C 32.597656 -41.632812 34.410156 -40.695312 35.921875 -39.5 C 37.429688 -38.3125 38.414062 -36.882812 38.875 -35.21875 C 39.1875 -34.175781 39.179688 -33.125 38.859375 -32.0625 C 38.546875 -31.007812 37.941406 -30.035156 37.046875 -29.140625 C 36.191406 -28.328125 35.1875 -27.726562 34.03125 -27.34375 C 32.882812 -26.957031 31.816406 -26.695312 30.828125 -26.5625 C 28.796875 -26.34375 27.148438 -26.625 25.890625 -27.40625 C 24.628906 -28.195312 23.960938 -29.242188 23.890625 -30.546875 C 23.828125 -31.859375 24.515625 -33.144531 25.953125 -34.40625 C 26.273438 -34.675781 26.601562 -35.132812 26.9375 -35.78125 C 27.269531 -36.4375 27.515625 -37.132812 27.671875 -37.875 C 27.835938 -38.625 27.804688 -39.300781 27.578125 -39.90625 C 27.347656 -40.519531 26.851562 -40.941406 26.09375 -41.171875 C 24.738281 -41.523438 23.335938 -41.148438 21.890625 -40.046875 C 20.453125 -38.941406 19.144531 -37.382812 17.96875 -35.375 C 16.800781 -33.375 15.878906 -31.179688 15.203125 -28.796875 C 14.847656 -27.398438 14.535156 -25.628906 14.265625 -23.484375 C 13.992188 -21.347656 13.898438 -19.082031 13.984375 -16.6875 C 14.078125 -14.300781 14.453125 -11.992188 15.109375 -9.765625 C 15.765625 -7.535156 16.832031 -5.585938 18.3125 -3.921875 C 19.351562 -2.796875 20.457031 -1.972656 21.625 -1.453125 C 22.800781 -0.929688 23.929688 -0.738281 25.015625 -0.875 C 26.222656 -1.007812 27.007812 -1.550781 27.375 -2.5 C 27.738281 -3.445312 27.769531 -4.570312 27.46875 -5.875 C 27.175781 -7.1875 26.660156 -8.460938 25.921875 -9.703125 C 25.179688 -10.941406 24.335938 -11.898438 23.390625 -12.578125 C 25.148438 -13.972656 26.796875 -14.972656 28.328125 -15.578125 C 29.859375 -16.191406 31.253906 -16.5 32.515625 -16.5 C 34.179688 -16.5 35.507812 -16.046875 36.5 -15.140625 C 37.488281 -14.242188 38.050781 -13.0625 38.1875 -11.59375 C 38.320312 -10.125 37.894531 -8.535156 36.90625 -6.828125 C 35.375 -4.253906 33.289062 -2.242188 30.65625 -0.796875 C 28.019531 0.640625 25.238281 1.359375 22.3125 1.359375 Z M 22.3125 1.359375 "/></g></g></g><g fill="#b80029" fill-opacity="1"><g transform="translate(175.992, 367.389615)"><g><path d="M 19.671875 0 L 1.890625 0 C 2.703125 -3.289062 3.34375 -6.953125 3.8125 -10.984375 C 4.289062 -15.015625 4.609375 -19.203125 4.765625 -23.546875 C 4.921875 -27.898438 4.921875 -32.25 4.765625 -36.59375 C 4.609375 -40.945312 4.289062 -45.140625 3.8125 -49.171875 C 3.34375 -53.203125 2.703125 -56.863281 1.890625 -60.15625 L 19.671875 -60.15625 C 18.765625 -56.507812 18.0625 -52.410156 17.5625 -47.859375 C 17.070312 -43.304688 16.769531 -38.597656 16.65625 -33.734375 C 16.550781 -28.867188 16.65625 -24.066406 16.96875 -19.328125 C 17.375 -23.390625 18.179688 -26.925781 19.390625 -29.9375 C 20.609375 -32.957031 22.070312 -35.457031 23.78125 -37.4375 C 25.5 -39.425781 27.316406 -40.90625 29.234375 -41.875 C 31.148438 -42.84375 32.988281 -43.328125 34.75 -43.328125 C 36.550781 -43.328125 38.171875 -42.84375 39.609375 -41.875 C 41.054688 -40.90625 42.113281 -39.472656 42.78125 -37.578125 C 43.507812 -35.597656 43.789062 -33.59375 43.625 -31.5625 C 43.46875 -29.539062 43.175781 -27.425781 42.75 -25.21875 C 42.320312 -23.007812 42.019531 -20.628906 41.84375 -18.078125 C 41.664062 -15.535156 41.867188 -12.773438 42.453125 -9.796875 C 43.035156 -6.828125 44.273438 -3.5625 46.171875 0 L 28.390625 0 C 27.804688 -1.9375 27.59375 -4.085938 27.75 -6.453125 C 27.90625 -8.816406 28.265625 -11.28125 28.828125 -13.84375 C 29.390625 -16.414062 29.972656 -18.960938 30.578125 -21.484375 C 31.191406 -24.015625 31.664062 -26.425781 32 -28.71875 C 32.34375 -31.019531 32.378906 -33.070312 32.109375 -34.875 C 31.929688 -36.050781 31.582031 -36.929688 31.0625 -37.515625 C 30.539062 -38.097656 29.898438 -38.390625 29.140625 -38.390625 C 27.921875 -38.390625 26.566406 -37.578125 25.078125 -35.953125 C 23.585938 -34.335938 22.253906 -31.925781 21.078125 -28.71875 C 19.910156 -25.519531 19.132812 -21.519531 18.75 -16.71875 C 18.375 -11.925781 18.679688 -6.351562 19.671875 0 Z M 19.671875 0 "/></g></g></g><g fill="#b80029" fill-opacity="1"><g transform="translate(228.504399, 367.389615)"><g><path d="M 1.359375 -19.609375 C 1.359375 -22.941406 1.910156 -26.035156 3.015625 -28.890625 C 4.117188 -31.753906 5.671875 -34.265625 7.671875 -36.421875 C 9.679688 -38.585938 12.046875 -40.28125 14.765625 -41.5 C 17.492188 -42.71875 20.476562 -43.328125 23.71875 -43.328125 C 25.34375 -43.328125 27.019531 -43.132812 28.75 -42.75 C 30.488281 -42.375 32.09375 -41.78125 33.5625 -40.96875 C 35.03125 -40.15625 36.234375 -39.082031 37.171875 -37.75 C 38.117188 -36.425781 38.640625 -34.796875 38.734375 -32.859375 C 38.828125 -30.648438 38.320312 -28.628906 37.21875 -26.796875 C 36.113281 -24.972656 34.613281 -23.363281 32.71875 -21.96875 C 30.820312 -20.570312 28.757812 -19.398438 26.53125 -18.453125 C 24.300781 -17.503906 22.09375 -16.789062 19.90625 -16.3125 C 17.71875 -15.84375 15.769531 -15.609375 14.0625 -15.609375 C 14.195312 -13.128906 14.703125 -10.738281 15.578125 -8.4375 C 16.460938 -6.144531 17.691406 -4.273438 19.265625 -2.828125 C 20.835938 -1.390625 22.753906 -0.738281 25.015625 -0.875 C 26.222656 -0.96875 27.007812 -1.472656 27.375 -2.390625 C 27.738281 -3.316406 27.769531 -4.445312 27.46875 -5.78125 C 27.175781 -7.113281 26.660156 -8.410156 25.921875 -9.671875 C 25.179688 -10.929688 24.335938 -11.898438 23.390625 -12.578125 C 25.148438 -13.972656 26.796875 -14.972656 28.328125 -15.578125 C 29.859375 -16.191406 31.253906 -16.5 32.515625 -16.5 C 34.179688 -16.5 35.507812 -16.046875 36.5 -15.140625 C 37.488281 -14.242188 38.050781 -13.0625 38.1875 -11.59375 C 38.320312 -10.125 37.894531 -8.535156 36.90625 -6.828125 C 35.375 -4.253906 33.289062 -2.242188 30.65625 -0.796875 C 28.019531 0.640625 25.238281 1.359375 22.3125 1.359375 C 19.019531 1.359375 16.078125 0.796875 13.484375 -0.328125 C 10.890625 -1.460938 8.691406 -3.007812 6.890625 -4.96875 C 5.085938 -6.925781 3.710938 -9.164062 2.765625 -11.6875 C 1.828125 -14.21875 1.359375 -16.859375 1.359375 -19.609375 Z M 15.203125 -28.796875 C 14.890625 -27.535156 14.609375 -25.898438 14.359375 -23.890625 C 14.117188 -21.890625 14 -19.785156 14 -17.578125 C 16.207031 -17.710938 18.195312 -18.476562 19.96875 -19.875 C 21.75 -21.269531 23.25 -23.003906 24.46875 -25.078125 C 25.6875 -27.148438 26.519531 -29.242188 26.96875 -31.359375 C 27.738281 -34.828125 27.84375 -37.363281 27.28125 -38.96875 C 26.71875 -40.570312 25.847656 -41.375 24.671875 -41.375 C 23.679688 -41.375 22.585938 -40.863281 21.390625 -39.84375 C 20.203125 -38.832031 19.054688 -37.390625 17.953125 -35.515625 C 16.847656 -33.648438 15.929688 -31.410156 15.203125 -28.796875 Z M 15.203125 -28.796875 "/></g></g></g><g fill="#b80029" fill-opacity="1"><g transform="translate(273.648412, 367.389615)"><g><path d="M 2.5 -6.828125 C 1.550781 -8.535156 1.132812 -10.125 1.25 -11.59375 C 1.363281 -13.0625 1.914062 -14.242188 2.90625 -15.140625 C 3.894531 -16.046875 5.222656 -16.5 6.890625 -16.5 C 8.148438 -16.5 9.546875 -16.191406 11.078125 -15.578125 C 12.617188 -14.972656 14.265625 -13.972656 16.015625 -12.578125 C 14.753906 -11.671875 13.929688 -10.597656 13.546875 -9.359375 C 13.171875 -8.117188 13.207031 -6.898438 13.65625 -5.703125 C 14.101562 -4.515625 14.890625 -3.445312 16.015625 -2.5 C 17.410156 -1.375 18.878906 -0.8125 20.421875 -0.8125 C 21.816406 -0.8125 23.085938 -1.21875 24.234375 -2.03125 C 25.378906 -2.84375 26.195312 -3.898438 26.6875 -5.203125 C 27.1875 -6.515625 27.1875 -7.898438 26.6875 -9.359375 C 26.195312 -10.828125 25.03125 -12.191406 23.1875 -13.453125 C 21.65625 -14.535156 19.835938 -15.535156 17.734375 -16.453125 C 15.640625 -17.378906 13.601562 -18.382812 11.625 -19.46875 C 9.007812 -20.90625 7.015625 -22.640625 5.640625 -24.671875 C 4.265625 -26.703125 3.554688 -28.785156 3.515625 -30.921875 C 3.472656 -33.066406 4.171875 -35.070312 5.609375 -36.9375 C 7.054688 -38.8125 9.265625 -40.332031 12.234375 -41.5 C 13.941406 -42.132812 15.753906 -42.617188 17.671875 -42.953125 C 19.585938 -43.296875 21.492188 -43.46875 23.390625 -43.46875 C 25.773438 -43.46875 28.023438 -43.207031 30.140625 -42.6875 C 32.265625 -42.164062 34.015625 -41.410156 35.390625 -40.421875 C 36.765625 -39.429688 37.5625 -38.171875 37.78125 -36.640625 C 38.050781 -34.921875 37.507812 -33.273438 36.15625 -31.703125 C 34.8125 -30.128906 32.675781 -29.160156 29.75 -28.796875 C 27.71875 -28.566406 26.070312 -28.859375 24.8125 -29.671875 C 23.550781 -30.484375 22.882812 -31.539062 22.8125 -32.84375 C 22.75 -34.15625 23.4375 -35.421875 24.875 -36.640625 C 25.507812 -37.179688 25.835938 -37.8125 25.859375 -38.53125 C 25.878906 -39.25 25.515625 -39.898438 24.765625 -40.484375 C 24.023438 -41.078125 22.820312 -41.375 21.15625 -41.375 C 20.570312 -41.375 19.835938 -41.078125 18.953125 -40.484375 C 18.078125 -39.898438 17.265625 -39.132812 16.515625 -38.1875 C 15.773438 -37.238281 15.269531 -36.222656 15 -35.140625 C 14.726562 -34.066406 14.875 -33.007812 15.4375 -31.96875 C 16.007812 -30.9375 17.171875 -30.0625 18.921875 -29.34375 C 20.546875 -28.664062 22.289062 -28 24.15625 -27.34375 C 26.03125 -26.6875 27.890625 -25.960938 29.734375 -25.171875 C 31.585938 -24.390625 33.269531 -23.429688 34.78125 -22.296875 C 36.289062 -21.171875 37.503906 -19.804688 38.421875 -18.203125 C 39.347656 -16.609375 39.8125 -14.6875 39.8125 -12.4375 C 39.8125 -9.914062 39.078125 -7.660156 37.609375 -5.671875 C 36.148438 -3.691406 34.316406 -2.140625 32.109375 -1.015625 C 30.578125 -0.242188 28.84375 0.34375 26.90625 0.75 C 24.96875 1.15625 22.960938 1.359375 20.890625 1.359375 C 18.410156 1.359375 15.960938 1.0625 13.546875 0.46875 C 11.140625 -0.113281 8.96875 -1.015625 7.03125 -2.234375 C 5.09375 -3.453125 3.582031 -4.984375 2.5 -6.828125 Z M 2.5 -6.828125 "/></g></g></g><g fill="#b80029" fill-opacity="1"><g transform="translate(319.874038, 367.389615)"><g><path d="M 2.5 -6.828125 C 1.550781 -8.535156 1.132812 -10.125 1.25 -11.59375 C 1.363281 -13.0625 1.914062 -14.242188 2.90625 -15.140625 C 3.894531 -16.046875 5.222656 -16.5 6.890625 -16.5 C 8.148438 -16.5 9.546875 -16.191406 11.078125 -15.578125 C 12.617188 -14.972656 14.265625 -13.972656 16.015625 -12.578125 C 14.753906 -11.671875 13.929688 -10.597656 13.546875 -9.359375 C 13.171875 -8.117188 13.207031 -6.898438 13.65625 -5.703125 C 14.101562 -4.515625 14.890625 -3.445312 16.015625 -2.5 C 17.410156 -1.375 18.878906 -0.8125 20.421875 -0.8125 C 21.816406 -0.8125 23.085938 -1.21875 24.234375 -2.03125 C 25.378906 -2.84375 26.195312 -3.898438 26.6875 -5.203125 C 27.1875 -6.515625 27.1875 -7.898438 26.6875 -9.359375 C 26.195312 -10.828125 25.03125 -12.191406 23.1875 -13.453125 C 21.65625 -14.535156 19.835938 -15.535156 17.734375 -16.453125 C 15.640625 -17.378906 13.601562 -18.382812 11.625 -19.46875 C 9.007812 -20.90625 7.015625 -22.640625 5.640625 -24.671875 C 4.265625 -26.703125 3.554688 -28.785156 3.515625 -30.921875 C 3.472656 -33.066406 4.171875 -35.070312 5.609375 -36.9375 C 7.054688 -38.8125 9.265625 -40.332031 12.234375 -41.5 C 13.941406 -42.132812 15.753906 -42.617188 17.671875 -42.953125 C 19.585938 -43.296875 21.492188 -43.46875 23.390625 -43.46875 C 25.773438 -43.46875 28.023438 -43.207031 30.140625 -42.6875 C 32.265625 -42.164062 34.015625 -41.410156 35.390625 -40.421875 C 36.765625 -39.429688 37.5625 -38.171875 37.78125 -36.640625 C 38.050781 -34.921875 37.507812 -33.273438 36.15625 -31.703125 C 34.8125 -30.128906 32.675781 -29.160156 29.75 -28.796875 C 27.71875 -28.566406 26.070312 -28.859375 24.8125 -29.671875 C 23.550781 -30.484375 22.882812 -31.539062 22.8125 -32.84375 C 22.75 -34.15625 23.4375 -35.421875 24.875 -36.640625 C 25.507812 -37.179688 25.835938 -37.8125 25.859375 -38.53125 C 25.878906 -39.25 25.515625 -39.898438 24.765625 -40.484375 C 24.023438 -41.078125 22.820312 -41.375 21.15625 -41.375 C 20.570312 -41.375 19.835938 -41.078125 18.953125 -40.484375 C 18.078125 -39.898438 17.265625 -39.132812 16.515625 -38.1875 C 15.773438 -37.238281 15.269531 -36.222656 15 -35.140625 C 14.726562 -34.066406 14.875 -33.007812 15.4375 -31.96875 C 16.007812 -30.9375 17.171875 -30.0625 18.921875 -29.34375 C 20.546875 -28.664062 22.289062 -28 24.15625 -27.34375 C 26.03125 -26.6875 27.890625 -25.960938 29.734375 -25.171875 C 31.585938 -24.390625 33.269531 -23.429688 34.78125 -22.296875 C 36.289062 -21.171875 37.503906 -19.804688 38.421875 -18.203125 C 39.347656 -16.609375 39.8125 -14.6875 39.8125 -12.4375 C 39.8125 -9.914062 39.078125 -7.660156 37.609375 -5.671875 C 36.148438 -3.691406 34.316406 -2.140625 32.109375 -1.015625 C 30.578125 -0.242188 28.84375 0.34375 26.90625 0.75 C 24.96875 1.15625 22.960938 1.359375 20.890625 1.359375 C 18.410156 1.359375 15.960938 1.0625 13.546875 0.46875 C 11.140625 -0.113281 8.96875 -1.015625 7.03125 -2.234375 C 5.09375 -3.453125 3.582031 -4.984375 2.5 -6.828125 Z M 2.5 -6.828125 "/></g></g></g></svg>